<mxfile host="app.diagrams.net" modified="2022-10-02T11:01:10.015Z" agent="5.0 (Windows NT 10.0; Win64; x64) AppleWebKit/537.36 (KHTML, like Gecko) Chrome/103.0.5060.134 Safari/537.36 Edg/103.0.1264.71" etag="7Lx_gjRWKs9JQGv-b41A" version="20.4.0" type="github">
  <diagram id="dfa9wvWRxeI32f8H8KOJ" name="blocking">
    <mxGraphModel dx="1577" dy="786" grid="1" gridSize="10" guides="1" tooltips="1" connect="1" arrows="1" fold="1" page="1" pageScale="1" pageWidth="827" pageHeight="1169" math="0" shadow="0">
      <root>
        <mxCell id="0" />
        <mxCell id="1" parent="0" />
        <mxCell id="y8oGnFCeqZBSWBBMQVek-20" value="进程阻塞" style="whiteSpace=wrap;html=1;fillColor=#ffe6cc;strokeColor=#d79b00;" vertex="1" parent="1">
          <mxGeometry x="120" y="360" width="160" height="460" as="geometry" />
        </mxCell>
        <mxCell id="y8oGnFCeqZBSWBBMQVek-17" value="" style="whiteSpace=wrap;html=1;fillColor=#d5e8d4;strokeColor=#82b366;" vertex="1" parent="1">
          <mxGeometry x="440" y="600" width="160" height="220" as="geometry" />
        </mxCell>
        <mxCell id="y8oGnFCeqZBSWBBMQVek-16" value="" style="whiteSpace=wrap;html=1;fillColor=#dae8fc;strokeColor=#6c8ebf;" vertex="1" parent="1">
          <mxGeometry x="440" y="360" width="160" height="220" as="geometry" />
        </mxCell>
        <mxCell id="y8oGnFCeqZBSWBBMQVek-8" style="edgeStyle=orthogonalEdgeStyle;rounded=0;orthogonalLoop=1;jettySize=auto;html=1;entryX=0;entryY=0.5;entryDx=0;entryDy=0;" edge="1" parent="1" source="y8oGnFCeqZBSWBBMQVek-1" target="y8oGnFCeqZBSWBBMQVek-3">
          <mxGeometry relative="1" as="geometry" />
        </mxCell>
        <mxCell id="y8oGnFCeqZBSWBBMQVek-9" value="系统调用" style="edgeLabel;html=1;align=center;verticalAlign=middle;resizable=0;points=[];" vertex="1" connectable="0" parent="y8oGnFCeqZBSWBBMQVek-8">
          <mxGeometry x="-0.1" y="1" relative="1" as="geometry">
            <mxPoint as="offset" />
          </mxGeometry>
        </mxCell>
        <mxCell id="y8oGnFCeqZBSWBBMQVek-1" value="recvfrom" style="rounded=1;whiteSpace=wrap;html=1;" vertex="1" parent="1">
          <mxGeometry x="140" y="380" width="120" height="60" as="geometry" />
        </mxCell>
        <mxCell id="y8oGnFCeqZBSWBBMQVek-10" style="edgeStyle=orthogonalEdgeStyle;rounded=0;orthogonalLoop=1;jettySize=auto;html=1;" edge="1" parent="1" source="y8oGnFCeqZBSWBBMQVek-3" target="y8oGnFCeqZBSWBBMQVek-4">
          <mxGeometry relative="1" as="geometry" />
        </mxCell>
        <mxCell id="y8oGnFCeqZBSWBBMQVek-3" value="数据未准备好" style="rounded=1;whiteSpace=wrap;html=1;" vertex="1" parent="1">
          <mxGeometry x="460" y="380" width="120" height="60" as="geometry" />
        </mxCell>
        <mxCell id="y8oGnFCeqZBSWBBMQVek-11" style="edgeStyle=orthogonalEdgeStyle;rounded=0;orthogonalLoop=1;jettySize=auto;html=1;entryX=0.5;entryY=0;entryDx=0;entryDy=0;" edge="1" parent="1" source="y8oGnFCeqZBSWBBMQVek-4" target="y8oGnFCeqZBSWBBMQVek-5">
          <mxGeometry relative="1" as="geometry" />
        </mxCell>
        <mxCell id="y8oGnFCeqZBSWBBMQVek-4" value="数据准备好" style="rounded=1;whiteSpace=wrap;html=1;" vertex="1" parent="1">
          <mxGeometry x="460" y="500" width="120" height="60" as="geometry" />
        </mxCell>
        <mxCell id="y8oGnFCeqZBSWBBMQVek-12" style="edgeStyle=orthogonalEdgeStyle;rounded=0;orthogonalLoop=1;jettySize=auto;html=1;" edge="1" parent="1" source="y8oGnFCeqZBSWBBMQVek-5" target="y8oGnFCeqZBSWBBMQVek-6">
          <mxGeometry relative="1" as="geometry" />
        </mxCell>
        <mxCell id="y8oGnFCeqZBSWBBMQVek-5" value="数据开始拷贝" style="rounded=1;whiteSpace=wrap;html=1;" vertex="1" parent="1">
          <mxGeometry x="460" y="620" width="120" height="60" as="geometry" />
        </mxCell>
        <mxCell id="y8oGnFCeqZBSWBBMQVek-13" value="返回成功指示" style="edgeStyle=orthogonalEdgeStyle;rounded=0;orthogonalLoop=1;jettySize=auto;html=1;entryX=1;entryY=0.5;entryDx=0;entryDy=0;" edge="1" parent="1" source="y8oGnFCeqZBSWBBMQVek-6" target="y8oGnFCeqZBSWBBMQVek-7">
          <mxGeometry relative="1" as="geometry" />
        </mxCell>
        <mxCell id="y8oGnFCeqZBSWBBMQVek-6" value="数据拷贝完成" style="rounded=1;whiteSpace=wrap;html=1;" vertex="1" parent="1">
          <mxGeometry x="460" y="740" width="120" height="60" as="geometry" />
        </mxCell>
        <mxCell id="y8oGnFCeqZBSWBBMQVek-7" value="数据处理" style="rounded=1;whiteSpace=wrap;html=1;" vertex="1" parent="1">
          <mxGeometry x="140" y="740" width="120" height="60" as="geometry" />
        </mxCell>
        <mxCell id="y8oGnFCeqZBSWBBMQVek-14" value="应用进程" style="text;html=1;align=center;verticalAlign=middle;resizable=0;points=[];autosize=1;strokeColor=none;fillColor=none;" vertex="1" parent="1">
          <mxGeometry x="165" y="320" width="70" height="30" as="geometry" />
        </mxCell>
        <mxCell id="y8oGnFCeqZBSWBBMQVek-15" value="内核" style="text;html=1;align=center;verticalAlign=middle;resizable=0;points=[];autosize=1;strokeColor=none;fillColor=none;" vertex="1" parent="1">
          <mxGeometry x="494" y="320" width="50" height="30" as="geometry" />
        </mxCell>
        <mxCell id="y8oGnFCeqZBSWBBMQVek-18" value="&lt;b&gt;&lt;font style=&quot;font-size: 14px;&quot;&gt;阻塞&lt;/font&gt;&lt;/b&gt;：&lt;br&gt;等待数据&lt;br&gt;从其他硬件到内存" style="text;html=1;align=left;verticalAlign=middle;resizable=0;points=[];autosize=1;strokeColor=none;fillColor=none;" vertex="1" parent="1">
          <mxGeometry x="620" y="450" width="120" height="60" as="geometry" />
        </mxCell>
        <mxCell id="y8oGnFCeqZBSWBBMQVek-19" value="&lt;b&gt;&lt;font style=&quot;font-size: 14px;&quot;&gt;同步&lt;/font&gt;&lt;/b&gt;：&lt;br&gt;从内核空间拷贝数据&lt;br&gt;到用户空间&lt;br&gt;都是在内存这一硬件&lt;br&gt;只能由 CPU 复制" style="text;html=1;align=left;verticalAlign=middle;resizable=0;points=[];autosize=1;strokeColor=none;fillColor=none;" vertex="1" parent="1">
          <mxGeometry x="620" y="665" width="130" height="90" as="geometry" />
        </mxCell>
        <mxCell id="y8oGnFCeqZBSWBBMQVek-21" value="同步阻塞 IO" style="text;html=1;align=center;verticalAlign=middle;resizable=0;points=[];autosize=1;strokeColor=none;fillColor=none;" vertex="1" parent="1">
          <mxGeometry x="320" y="840" width="90" height="30" as="geometry" />
        </mxCell>
      </root>
    </mxGraphModel>
  </diagram>
</mxfile>
